# xmcd
#
# Track frame offsets:
#	150
#	15550
#	40192
#	56049
#	70986
#	84299
#	103745
#	115847
#	130667
#	145235
#	164896
#	179546
#	197941
#	214735
#	236942
#	255327
#	278115
#	300029
#
# Disc length: 4337 seconds
#
# Revision: 1
# Processed by: cddbd v1.5PL3 Copyright (c) Steve Scherf et al.
# Submitted via: audiograbber 1.81.03
#
DISCID=0210ef12
DTITLE=aa - aa
DYEAR=1900
DGENRE=blues
TTITLE0=Aifo HaYeled - MiSh'Hu Shomaia Otti
TTITLE1=Esther Shamir - BaMakom HaChi Namuch B'Tel Aviv
TTITLE2=Chaverim Shel Natasha - Att Lo
TTITLE3=Avitar Banai - Mattai NitNaShek
TTITLE4=Keif HaTikvan HaTovah - Dr Yaring
TTITLE5=Mophaa Harnavot Shel Dr Kasper - Bo'i Dina
TTITLE6=HaShmeinim veHaRazim - Ya Ya Mah YihiYeh
TTITLE7=HaChalonot HaGevohim  - Yechezkel
TTITLE8=Avtipus - SheshEsreh Mal'u LaNaar
TTITLE9=Rami Fortis - Hatul Mifletzet
TTITLE10=Carmela Gross Vagner - Tmunah Impressionistit
TTITLE11=Ephraim Shamir - Chaver beChevrat Atzmi
TTITLE12=Dani Sanderson - HaLo Noda
TTITLE13=Yosi Alaphant - Aich keShe
TTITLE14=Sivan Shavit - NaShek Oti
TTITLE15=Boaz Shar'abi - Etzli Hakol Beseder
TTITLE16=Sharon Lipshitz - Ata Ba eilai
TTITLE17=Noar Shulaim - Lech Itah
EXTD=
EXTT0=
EXTT1=
EXTT2=
EXTT3=
EXTT4=
EXTT5=
EXTT6=
EXTT7=
EXTT8=
EXTT9=
EXTT10=
EXTT11=
EXTT12=
EXTT13=
EXTT14=
EXTT15=
EXTT16=
EXTT17=
PLAYORDER=
